<svg width="67" height="67" viewBox="0 0 67 67" fill="none" xmlns="http://www.w3.org/2000/svg">
<path d="M0 33.5C0 52.0015 14.9985 67 33.5 67C52.0015 67 67 52.0015 67 33.5C67 14.9985 52.0015 0 33.5 0C14.9985 0 0 14.9985 0 33.5Z" fill="#25D366"/>
<path fill-rule="evenodd" clip-rule="evenodd" d="M45.225 21.5656C42.0844 18.425 37.8969 16.75 33.5 16.75C24.2875 16.75 16.75 24.2875 16.75 33.5C16.75 36.4312 17.5875 39.3625 19.0531 41.875L16.75 50.25L25.5438 47.9469C28.0563 49.2031 30.7781 50.0406 33.5 50.0406C42.7125 50.0406 50.25 42.5031 50.25 33.2906C50.25 28.8937 48.3656 24.7063 45.225 21.5656ZM33.5 47.3188C30.9875 47.3188 28.475 46.6906 26.3813 45.4344L25.9625 45.225L20.7281 46.6906L22.1938 41.6656L21.775 41.0375C20.3094 38.7344 19.6812 36.2219 19.6812 33.7094C19.6812 26.1719 25.9625 19.8906 33.5 19.8906C37.2687 19.8906 40.6188 21.3562 43.3407 23.8687C46.0625 26.5906 47.3188 29.9406 47.3188 33.7094C47.3188 41.0375 41.2469 47.3188 33.5 47.3188ZM41.0375 36.85C40.6188 36.6406 38.525 35.5938 38.1063 35.5938C37.6875 35.3844 37.4781 35.3844 37.2687 35.8031C37.0593 36.2219 36.2219 37.0594 36.0125 37.4781C35.8032 37.6875 35.5937 37.6875 35.175 37.6875C34.7562 37.4781 33.5 37.0594 31.825 35.5938C30.5688 34.5469 29.7313 33.0813 29.5219 32.6625C29.3125 32.2438 29.5219 32.0344 29.7313 31.825C29.9407 31.6156 30.15 31.4062 30.3594 31.1969C30.5688 30.9875 30.5688 30.7781 30.7782 30.5688C30.9875 30.3594 30.7782 30.15 30.7782 29.9406C30.7782 29.7313 29.9406 27.6375 29.5219 26.8C29.3125 26.1719 28.8938 26.1719 28.6844 26.1719C28.475 26.1719 28.2656 26.1719 27.8468 26.1719C27.6375 26.1719 27.2187 26.1719 26.8 26.5906C26.3812 27.0094 25.3344 28.0562 25.3344 30.15C25.3344 32.2437 26.8 34.1281 27.0094 34.5469C27.2187 34.7563 29.9406 39.1531 34.1281 40.8281C37.6875 42.2938 38.3157 41.875 39.1532 41.875C39.9907 41.875 41.6656 40.8281 41.875 39.9906C42.2938 38.9438 42.2938 38.1063 42.0844 38.1063C41.875 37.0594 41.4563 37.0594 41.0375 36.85Z" fill="white"/>
</svg>
